<svg version="1.1" xmlns="http://www.w3.org/2000/svg" xmlns:xlink="http://www.w3.org/1999/xlink" width="706" height="475" viewBox="0,0,706,475"><g transform="translate(158,52.5)"><g data-paper-data="{&quot;isPaintingLayer&quot;:true}" fill-rule="nonzero" stroke-linejoin="miter" stroke-miterlimit="10" stroke-dasharray="" stroke-dashoffset="0" style="mix-blend-mode: normal"><path d="M-158,422.5v-475h706v475z" fill="#0094b7" stroke="none" stroke-width="0" stroke-linecap="butt"/><text transform="translate(22.50355,127.29054) rotate(-22.47147) scale(1.62003,1.62003)" font-size="40" xml:space="preserve" fill="#0cb700" fill-rule="nonzero" stroke="none" stroke-width="1" stroke-linecap="butt" stroke-linejoin="miter" stroke-miterlimit="10" stroke-dasharray="" stroke-dashoffset="0" font-family="Sans Serif" font-weight="normal" text-anchor="start" style="mix-blend-mode: normal"><tspan x="0" dy="0">$TOCK</tspan></text><text transform="translate(128.60001,132.07366) scale(1.54237,1.54237)" font-size="40" xml:space="preserve" fill="#0cb700" fill-rule="nonzero" stroke="none" stroke-width="1" stroke-linecap="butt" stroke-linejoin="miter" stroke-miterlimit="10" stroke-dasharray="" stroke-dashoffset="0" font-family="Sans Serif" font-weight="normal" text-anchor="start" style="mix-blend-mode: normal"><tspan x="0" dy="0">$IMULATOR</tspan></text><g stroke-linecap="butt"><path d="M44.73974,234.65651l-7.90518,-60.4208l132.75558,-17.36913l7.90518,60.42081z" fill="#0cb700" stroke="none" stroke-width="0"/><path d="M131.04853,193.06951c1.59878,12.21982 -7.20176,23.44693 -19.65657,25.07646c-12.45481,1.62953 -23.8475,-6.95559 -25.44629,-19.17541c-1.59879,-12.21982 7.20177,-23.44692 19.65658,-25.07645c12.45481,-1.62953 23.8475,6.95559 25.44628,19.1754z" fill="none" stroke="#000000" stroke-width="2.5"/><path d="M109.93894,209.57991c-0.85059,-0.65377 -0.19683,-1.50437 -0.19683,-1.50437l0.52651,-0.16939c-0.02781,-0.21255 -0.05562,-0.42508 -0.08343,-0.63763c-3.0948,0.43543 -6.03816,1.05129 -8.68494,2.83785l-1.94267,0.28312c0,0 -1.06375,0.13917 -1.20292,-0.92457c-0.13917,-1.06375 0.92457,-1.20292 0.92457,-1.20292l1.46132,-0.16225c2.75855,-1.862 5.88187,-2.49596 9.16674,-2.95531c-0.30114,-2.30168 -0.60228,-4.60337 -0.90342,-6.90506c-1.9299,-0.9401 -4.19187,-1.02056 -6.25853,-1.27937c-1.07295,-0.13437 -3.00563,1.02755 -3.94881,0.22869c-1.53226,-1.2978 -0.0957,-5.60626 0.83713,-6.83303c1.18407,-1.55719 3.62207,-2.41441 5.09582,-3.62792c-0.37186,-1.83303 -0.35389,-4.01629 -0.57673,-5.71949c0,0 -0.13918,-1.06375 0.92457,-1.20292c1.06374,-0.13917 1.20293,0.92458 1.20293,0.92458c0.16635,1.27143 0.35733,2.46996 0.57958,3.63532c2.56714,-2.03814 5.54057,-2.92132 8.76348,-3.343c0,0 1.06375,-0.13918 1.20293,0.92457c0.13917,1.06375 -0.92457,1.20293 -0.92457,1.20293c-3.50956,0.45917 -6.04045,1.96209 -8.47717,3.83597c0.29167,1.21268 0.6246,2.42205 1.00681,3.67623c0.35688,1.17106 1.56346,1.91573 2.08588,3.02291c0.08205,0.1739 0.3788,2.45655 0.49804,3.38286c0.30613,0.31561 0.60905,0.63698 1.01408,0.77463c0.65793,0.22359 1.47601,-0.31995 2.08461,0.01541c1.62704,0.89654 2.82974,3.98279 2.94285,5.69802c0.05473,0.82985 0.51634,1.83555 0.00953,2.49494c-0.3329,0.43312 -3.40093,0.76186 -4.1154,0.85534c-0.2133,0.02791 -0.42611,0.05532 -0.63838,0.08252c0.02788,0.21308 0.05576,0.42615 0.08364,0.63923l-0.95281,1.75529c0,0 -0.65377,0.85059 -1.50436,0.19682zM108.58469,194.6172c-0.23611,-0.46848 -0.83396,-0.66469 -1.12336,-1.10226c-0.7493,-1.13292 -0.78481,-2.60404 -1.28375,-3.86737c-0.15787,-0.39971 -0.48469,-0.71073 -0.75174,-1.0529c-0.86453,0.7147 -1.74746,1.45261 -2.68758,2.18424c-0.43636,0.33958 -1.06328,0.44836 -1.4034,0.8843c-0.15299,0.1961 -1.2704,3.80738 -1.23077,3.8243c0.89972,0.3841 1.88643,-0.76597 2.85916,-0.66204c1.97022,0.21051 4.00612,0.41081 5.91167,1.07612c-0.02251,-0.45018 -0.08984,-0.88683 -0.29022,-1.2844zM114.3745,204.55588c0.33602,-0.00441 0.78579,0.45373 0.99058,0.1873c0.20479,-0.26644 -0.35362,-0.58321 -0.43583,-0.90904c-0.24117,-0.95582 -0.70654,-3.56842 -1.79722,-4.06859c-0.53063,-0.24334 -1.19549,0.30167 -1.74844,0.12328c0.21573,1.64888 0.43147,3.29776 0.6472,4.94664c0.77841,-0.1326 1.55654,-0.26924 2.34372,-0.27958z" fill="#000000" stroke="none" stroke-width="0.5"/><path d="M61.33027,222.53189c0.46119,3.52495 -2.21297,6.78127 -5.97292,7.2732c-3.75995,0.49194 -7.18185,-1.96681 -7.64304,-5.49175c-0.46119,-3.52495 2.21298,-6.78127 5.97293,-7.27321c3.75995,-0.49194 7.18184,1.96681 7.64303,5.49176z" fill="none" stroke="#000000" stroke-width="1.5"/><path d="M56.31994,184.23701c0.46119,3.52495 -2.21298,6.78127 -5.97293,7.2732c-3.75995,0.49194 -7.18184,-1.96681 -7.64303,-5.49175c-0.46119,-3.52495 2.21297,-6.78127 5.97292,-7.27321c3.75995,-0.49194 7.18185,1.96681 7.64304,5.49176z" fill="none" stroke="#000000" stroke-width="1.5"/><path d="M171.10892,208.16896c0.46119,3.52495 -2.21298,6.78126 -5.97293,7.2732c-3.75994,0.49194 -7.18184,-1.96681 -7.64303,-5.49176c-0.46119,-3.52495 2.21298,-6.78126 5.97292,-7.2732c3.75994,-0.49194 7.18184,1.96681 7.64303,5.49176z" fill="none" stroke="#000000" stroke-width="1.5"/><path d="M165.35893,170.83642c0.46119,3.52495 -2.21297,6.78126 -5.97292,7.2732c-3.75994,0.49194 -7.18185,-1.9668 -7.64303,-5.49175c-0.46119,-3.52495 2.21298,-6.78127 5.97293,-7.2732c3.75994,-0.49194 7.18184,1.96681 7.64303,5.49175z" fill="none" stroke="#000000" stroke-width="1.5"/></g><g stroke-linecap="butt"><path d="M49.55143,238.35479l-7.90518,-60.4208l132.75558,-17.36913l7.90518,60.42081z" fill="#0cb700" stroke="none" stroke-width="0"/><path d="M135.86022,196.76779c1.59878,12.21982 -7.20176,23.44693 -19.65657,25.07646c-12.45481,1.62953 -23.8475,-6.95559 -25.44629,-19.17541c-1.59879,-12.21982 7.20177,-23.44693 19.65658,-25.07646c12.45481,-1.62953 23.8475,6.95559 25.44628,19.17541z" fill="none" stroke="#000000" stroke-width="2.5"/><path d="M114.75064,213.2782c-0.85059,-0.65377 -0.19683,-1.50437 -0.19683,-1.50437l0.5265,-0.16939c-0.02781,-0.21255 -0.05561,-0.42508 -0.08342,-0.63763c-3.0948,0.43542 -6.03816,1.05129 -8.68494,2.83785l-1.94267,0.28311c0,0 -1.06375,0.13918 -1.20292,-0.92457c-0.13917,-1.06375 0.92457,-1.20292 0.92457,-1.20292l1.46132,-0.16225c2.75855,-1.862 5.88187,-2.49595 9.16674,-2.95531c-0.30114,-2.30169 -0.60228,-4.60336 -0.90342,-6.90506c-1.9299,-0.9401 -4.19188,-1.02056 -6.25853,-1.27937c-1.07295,-0.13437 -3.00563,1.02755 -3.94881,0.22869c-1.53226,-1.2978 -0.0957,-5.60626 0.83713,-6.83303c1.18407,-1.55719 3.62207,-2.41441 5.09582,-3.62792c-0.37186,-1.83303 -0.35389,-4.01629 -0.57673,-5.71949c0,0 -0.13917,-1.06375 0.92457,-1.20292c1.06374,-0.13917 1.20292,0.92457 1.20292,0.92457c0.16635,1.27143 0.35732,2.46997 0.57958,3.63533c2.56714,-2.03814 5.54057,-2.92132 8.76349,-3.343c0,0 1.06375,-0.13917 1.20292,0.92457c0.13917,1.06375 -0.92457,1.20292 -0.92457,1.20292c-3.50956,0.45917 -6.04045,1.96209 -8.47716,3.83597c0.29167,1.21268 0.62459,2.42205 1.00681,3.67623c0.35688,1.17106 1.56345,1.91573 2.08587,3.02291c0.08205,0.1739 0.3788,2.45655 0.49804,3.38286c0.30613,0.31561 0.60905,0.63698 1.01407,0.77462c0.65793,0.22359 1.47601,-0.31994 2.08462,0.01542c1.62704,0.89654 2.82974,3.98279 2.94285,5.69802c0.05473,0.82985 0.51634,1.83555 0.00953,2.49494c-0.3329,0.43313 -3.40094,0.76186 -4.11541,0.85534c-0.2133,0.02791 -0.4261,0.05532 -0.63837,0.08252c0.02788,0.21308 0.05575,0.42615 0.08363,0.63923l-0.95281,1.75528c0,0 -0.65376,0.8506 -1.50436,0.19683zM113.39638,198.31549c-0.23611,-0.46848 -0.83397,-0.6647 -1.12337,-1.10226c-0.7493,-1.13292 -0.7848,-2.60404 -1.28375,-3.86737c-0.15787,-0.39971 -0.48469,-0.71073 -0.75174,-1.0529c-0.86452,0.71469 -1.74746,1.45261 -2.68758,2.18425c-0.43636,0.33958 -1.06328,0.44835 -1.4034,0.88429c-0.15299,0.1961 -1.2704,3.80739 -1.23078,3.8243c0.89972,0.3841 1.88643,-0.76597 2.85916,-0.66203c1.97022,0.21051 4.00614,0.41081 5.91168,1.07612c-0.02251,-0.45018 -0.08984,-0.88683 -0.29022,-1.2844zM119.18619,208.25416c0.33602,-0.00441 0.78579,0.45373 0.99058,0.18729c0.20479,-0.26644 -0.35362,-0.58321 -0.43583,-0.90904c-0.24116,-0.95582 -0.70654,-3.56842 -1.79723,-4.06859c-0.53063,-0.24334 -1.19548,0.30166 -1.74844,0.12328c0.21573,1.64888 0.43147,3.29776 0.6472,4.94664c0.77841,-0.1326 1.55654,-0.26923 2.34372,-0.27958z" fill="#000000" stroke="none" stroke-width="0.5"/><path d="M66.14196,226.23017c0.46119,3.52495 -2.21298,6.78127 -5.97292,7.27321c-3.75995,0.49194 -7.18184,-1.96681 -7.64303,-5.49176c-0.46119,-3.52495 2.21298,-6.78127 5.97292,-7.2732c3.75995,-0.49194 7.18184,1.96681 7.64303,5.49175z" fill="none" stroke="#000000" stroke-width="1.5"/><path d="M61.13163,187.9353c0.46119,3.52495 -2.21298,6.78127 -5.97293,7.2732c-3.75995,0.49194 -7.18184,-1.96681 -7.64303,-5.49175c-0.46119,-3.52495 2.21297,-6.78127 5.97292,-7.2732c3.75995,-0.49194 7.18185,1.96681 7.64304,5.49175z" fill="none" stroke="#000000" stroke-width="1.5"/><path d="M175.92061,211.86724c0.46119,3.52495 -2.21298,6.78127 -5.97293,7.27321c-3.75994,0.49194 -7.18184,-1.96681 -7.64303,-5.49176c-0.46119,-3.52495 2.21298,-6.78127 5.97292,-7.2732c3.75994,-0.49194 7.18185,1.96681 7.64303,5.49175z" fill="none" stroke="#000000" stroke-width="1.5"/><path d="M170.17062,174.5347c0.46119,3.52495 -2.21298,6.78127 -5.97292,7.2732c-3.75994,0.49194 -7.18185,-1.96681 -7.64303,-5.49175c-0.46119,-3.52495 2.21298,-6.78127 5.97293,-7.27321c3.75994,-0.49194 7.18184,1.96681 7.64303,5.49176z" fill="none" stroke="#000000" stroke-width="1.5"/></g><g stroke-linecap="butt"><path d="M54.36312,242.05308l-7.90519,-60.4208l132.75558,-17.36913l7.90518,60.42081z" fill="#0cb700" stroke="none" stroke-width="0"/><path d="M140.67191,200.46607c1.59878,12.21982 -7.20176,23.44693 -19.65658,25.07646c-12.45481,1.62953 -23.84749,-6.95559 -25.44628,-19.17541c-1.59879,-12.21982 7.20176,-23.44693 19.65657,-25.07646c12.45481,-1.62953 23.8475,6.95559 25.44629,19.17541z" fill="none" stroke="#000000" stroke-width="2.5"/><path d="M119.56232,216.97648c-0.85059,-0.65377 -0.19682,-1.50437 -0.19682,-1.50437l0.5265,-0.16939c-0.02781,-0.21255 -0.05561,-0.42508 -0.08342,-0.63762c-3.0948,0.43542 -6.03816,1.05129 -8.68494,2.83785l-1.94267,0.28311c0,0 -1.06375,0.13918 -1.20292,-0.92457c-0.13917,-1.06375 0.92457,-1.20292 0.92457,-1.20292l1.46132,-0.16225c2.75855,-1.862 5.88187,-2.49595 9.16674,-2.95531c-0.30114,-2.30169 -0.60228,-4.60336 -0.90342,-6.90506c-1.9299,-0.9401 -4.19188,-1.02057 -6.25853,-1.27938c-1.07295,-0.13437 -3.00563,1.02756 -3.94881,0.2287c-1.53226,-1.2978 -0.0957,-5.60627 0.83713,-6.83303c1.18407,-1.55719 3.62207,-2.41441 5.09582,-3.62791c-0.37186,-1.83303 -0.35389,-4.01629 -0.57673,-5.71949c0,0 -0.13917,-1.06375 0.92457,-1.20292c1.06374,-0.13917 1.20292,0.92457 1.20292,0.92457c0.16635,1.27143 0.35733,2.46997 0.57959,3.63533c2.56714,-2.03814 5.54057,-2.92132 8.76348,-3.343c0,0 1.06375,-0.13917 1.20292,0.92457c0.13917,1.06375 -0.92457,1.20292 -0.92457,1.20292c-3.50956,0.45917 -6.04045,1.9621 -8.47716,3.83598c0.29167,1.21268 0.62459,2.42205 1.00681,3.67623c0.35688,1.17106 1.56345,1.91573 2.08587,3.0229c0.08205,0.1739 0.3788,2.45656 0.49804,3.38287c0.30613,0.31561 0.60905,0.63698 1.01408,0.77462c0.65793,0.22359 1.47601,-0.31995 2.08462,0.01541c1.62704,0.89654 2.82974,3.9828 2.94285,5.69803c0.05473,0.82985 0.51634,1.83555 0.00953,2.49494c-0.3329,0.43313 -3.40094,0.76185 -4.11541,0.85533c-0.2133,0.02791 -0.4261,0.05532 -0.63837,0.08253c0.02788,0.21308 0.05576,0.42615 0.08364,0.63923l-0.95281,1.75528c0,0 -0.65377,0.8506 -1.50437,0.19683zM118.20807,202.01377c-0.23611,-0.46848 -0.83397,-0.66469 -1.12337,-1.10226c-0.7493,-1.13292 -0.7848,-2.60404 -1.28375,-3.86737c-0.15787,-0.39971 -0.48469,-0.71073 -0.75174,-1.0529c-0.86452,0.71469 -1.74746,1.45261 -2.68758,2.18425c-0.43636,0.33958 -1.06329,0.44835 -1.4034,0.88429c-0.15299,0.1961 -1.2704,3.80739 -1.23077,3.8243c0.89972,0.3841 1.88643,-0.76597 2.85917,-0.66204c1.97022,0.21051 4.00613,0.41081 5.91168,1.07612c-0.02251,-0.45018 -0.08984,-0.88683 -0.29022,-1.2844zM123.99788,211.95244c0.33602,-0.00441 0.78579,0.45373 0.99058,0.1873c0.20479,-0.26644 -0.35362,-0.58321 -0.43583,-0.90904c-0.24116,-0.95582 -0.70654,-3.56842 -1.79723,-4.06859c-0.53063,-0.24334 -1.19548,0.30166 -1.74843,0.12328c0.21573,1.64888 0.43147,3.29776 0.64719,4.94664c0.77841,-0.1326 1.55654,-0.26924 2.34372,-0.27958z" fill="#000000" stroke="none" stroke-width="0.5"/><path d="M70.95364,229.92846c0.46119,3.52495 -2.21298,6.78127 -5.97292,7.2732c-3.75995,0.49194 -7.18184,-1.96681 -7.64303,-5.49176c-0.46119,-3.52495 2.21297,-6.78127 5.97292,-7.2732c3.75995,-0.49194 7.18184,1.96681 7.64303,5.49176z" fill="none" stroke="#000000" stroke-width="1.5"/><path d="M65.94332,191.63358c0.46119,3.52495 -2.21298,6.78127 -5.97292,7.2732c-3.75995,0.49194 -7.18185,-1.96681 -7.64304,-5.49175c-0.46119,-3.52495 2.21298,-6.78127 5.97293,-7.27321c3.75995,-0.49194 7.18184,1.96681 7.64303,5.49176z" fill="none" stroke="#000000" stroke-width="1.5"/><path d="M180.7323,215.56552c0.46119,3.52495 -2.21298,6.78127 -5.97293,7.27321c-3.75994,0.49194 -7.18185,-1.96681 -7.64303,-5.49176c-0.46119,-3.52495 2.21298,-6.78127 5.97293,-7.2732c3.75994,-0.49194 7.18185,1.96681 7.64303,5.49175z" fill="none" stroke="#000000" stroke-width="1.5"/><path d="M174.98231,178.23298c0.46119,3.52495 -2.21298,6.78127 -5.97293,7.2732c-3.75994,0.49194 -7.18184,-1.96681 -7.64303,-5.49175c-0.46119,-3.52495 2.21298,-6.78127 5.97293,-7.27321c3.75994,-0.49194 7.18184,1.96681 7.64303,5.49176z" fill="none" stroke="#000000" stroke-width="1.5"/></g><g stroke-linecap="butt"><path d="M59.17481,245.75136l-7.90519,-60.42081l132.75558,-17.36913l7.90518,60.42081z" fill="#0cb700" stroke="none" stroke-width="0"/><path d="M145.4836,204.16436c1.59878,12.21982 -7.20176,23.44693 -19.65657,25.07646c-12.45481,1.62953 -23.84749,-6.95559 -25.44628,-19.17541c-1.59879,-12.21982 7.20176,-23.44693 19.65657,-25.07646c12.45481,-1.62953 23.8475,6.95559 25.44628,19.17541z" fill="none" stroke="#000000" stroke-width="2.5"/><path d="M124.37401,220.67477c-0.85059,-0.65377 -0.19683,-1.50437 -0.19683,-1.50437l0.52651,-0.16939c-0.02781,-0.21255 -0.05561,-0.42508 -0.08342,-0.63762c-3.0948,0.43542 -6.03816,1.05129 -8.68494,2.83785l-1.94267,0.28311c0,0 -1.06375,0.13918 -1.20292,-0.92457c-0.13917,-1.06375 0.92457,-1.20292 0.92457,-1.20292l1.46132,-0.16225c2.75855,-1.862 5.88187,-2.49595 9.16674,-2.95531c-0.30114,-2.30169 -0.60228,-4.60336 -0.90342,-6.90506c-1.9299,-0.9401 -4.19188,-1.02057 -6.25853,-1.27938c-1.07295,-0.13437 -3.00563,1.02756 -3.94881,0.2287c-1.53226,-1.2978 -0.0957,-5.60627 0.83713,-6.83303c1.18407,-1.55719 3.62207,-2.41441 5.09582,-3.62792c-0.37186,-1.83303 -0.35389,-4.01629 -0.57673,-5.71949c0,0 -0.13917,-1.06375 0.92457,-1.20292c1.06374,-0.13917 1.20292,0.92457 1.20292,0.92457c0.16635,1.27143 0.35733,2.46997 0.57959,3.63533c2.56714,-2.03814 5.54057,-2.92132 8.76348,-3.343c0,0 1.06375,-0.13918 1.20292,0.92457c0.13917,1.06375 -0.92457,1.20292 -0.92457,1.20292c-3.50956,0.45917 -6.04045,1.9621 -8.47717,3.83598c0.29167,1.21268 0.62459,2.42205 1.0068,3.67623c0.35688,1.17106 1.56346,1.91573 2.08588,3.0229c0.08205,0.1739 0.3788,2.45656 0.49804,3.38287c0.30613,0.31561 0.60905,0.63698 1.01408,0.77462c0.65793,0.22359 1.476,-0.31995 2.08461,0.01541c1.62704,0.89654 2.82974,3.98279 2.94286,5.69802c0.05472,0.82985 0.51634,1.83555 0.00953,2.49495c-0.33291,0.43313 -3.40094,0.76185 -4.11541,0.85533c-0.2133,0.02791 -0.4261,0.05532 -0.63837,0.08253c0.02788,0.21308 0.05575,0.42615 0.08363,0.63923l-0.9528,1.75528c0,0 -0.65377,0.8506 -1.50437,0.19683zM123.01975,205.71205c-0.23611,-0.46848 -0.83397,-0.66469 -1.12337,-1.10226c-0.7493,-1.13292 -0.7848,-2.60404 -1.28375,-3.86737c-0.15787,-0.39971 -0.48469,-0.71073 -0.75174,-1.0529c-0.86452,0.71469 -1.74746,1.4526 -2.68758,2.18424c-0.43636,0.33958 -1.06329,0.44836 -1.4034,0.8843c-0.15299,0.1961 -1.2704,3.80738 -1.23077,3.8243c0.89972,0.3841 1.88643,-0.76596 2.85917,-0.66203c1.97022,0.21051 4.00613,0.41081 5.91168,1.07612c-0.02251,-0.45018 -0.08984,-0.88683 -0.29022,-1.2844zM128.80957,215.65073c0.33602,-0.00441 0.78579,0.45373 0.99057,0.1873c0.20478,-0.26644 -0.35362,-0.58321 -0.43583,-0.90904c-0.24116,-0.95582 -0.70653,-3.56842 -1.79722,-4.06859c-0.53063,-0.24334 -1.19548,0.30166 -1.74844,0.12328c0.21573,1.64888 0.43147,3.29776 0.64719,4.94664c0.77841,-0.1326 1.55654,-0.26924 2.34373,-0.27958z" fill="#000000" stroke="none" stroke-width="0.5"/><path d="M75.76533,233.62674c0.46119,3.52495 -2.21298,6.78127 -5.97292,7.2732c-3.75995,0.49194 -7.18185,-1.96681 -7.64304,-5.49176c-0.46119,-3.52495 2.21298,-6.78127 5.97292,-7.2732c3.75995,-0.49194 7.18184,1.96681 7.64303,5.49176z" fill="none" stroke="#000000" stroke-width="1.5"/><path d="M70.75501,195.33186c0.46119,3.52495 -2.21298,6.78127 -5.97293,7.2732c-3.75995,0.49194 -7.18184,-1.96681 -7.64303,-5.49175c-0.46119,-3.52495 2.21298,-6.78127 5.97293,-7.27321c3.75995,-0.49194 7.18184,1.96681 7.64303,5.49176z" fill="none" stroke="#000000" stroke-width="1.5"/><path d="M185.54399,219.26381c0.46119,3.52495 -2.21298,6.78127 -5.97293,7.27321c-3.75994,0.49194 -7.18185,-1.96681 -7.64303,-5.49176c-0.46119,-3.52495 2.21298,-6.78127 5.97293,-7.2732c3.75994,-0.49194 7.18185,1.96681 7.64303,5.49175z" fill="none" stroke="#000000" stroke-width="1.5"/><path d="M179.794,181.93127c0.46119,3.52495 -2.21298,6.78127 -5.97293,7.2732c-3.75994,0.49194 -7.18184,-1.96681 -7.64303,-5.49175c-0.46119,-3.52495 2.21298,-6.78127 5.97293,-7.2732c3.75994,-0.49194 7.18184,1.96681 7.64303,5.49175z" fill="none" stroke="#000000" stroke-width="1.5"/></g><g stroke-linecap="butt"><path d="M63.9865,249.44965l-7.90518,-60.42081l132.75558,-17.36913l7.90518,60.42081z" fill="#0cb700" stroke="none" stroke-width="0"/><path d="M150.29529,207.86264c1.59878,12.21982 -7.20176,23.44692 -19.65658,25.07645c-12.45481,1.62953 -23.84749,-6.95559 -25.44628,-19.1754c-1.59879,-12.21982 7.20176,-23.44692 19.65657,-25.07645c12.45481,-1.62953 23.8475,6.95559 25.44628,19.1754z" fill="none" stroke="#000000" stroke-width="2.5"/><path d="M129.1857,224.37305c-0.85059,-0.65377 -0.19682,-1.50436 -0.19682,-1.50436l0.5265,-0.16939c-0.02781,-0.21255 -0.05562,-0.42508 -0.08343,-0.63763c-3.0948,0.43542 -6.03816,1.0513 -8.68494,2.83786l-1.94267,0.28311c0,0 -1.06375,0.13917 -1.20292,-0.92457c-0.13917,-1.06375 0.92457,-1.20292 0.92457,-1.20292l1.46132,-0.16225c2.75855,-1.862 5.88187,-2.49595 9.16675,-2.95531c-0.30114,-2.30169 -0.60229,-4.60337 -0.90343,-6.90506c-1.9299,-0.9401 -4.19187,-1.02056 -6.25853,-1.27937c-1.07295,-0.13437 -3.00563,1.02755 -3.94881,0.22869c-1.53226,-1.2978 -0.0957,-5.60626 0.83713,-6.83303c1.18407,-1.55719 3.62207,-2.41441 5.09582,-3.62792c-0.37186,-1.83303 -0.35389,-4.01629 -0.57673,-5.71949c0,0 -0.13917,-1.06375 0.92457,-1.20292c1.06374,-0.13917 1.20292,0.92457 1.20292,0.92457c0.16635,1.27143 0.35733,2.46997 0.57959,3.63533c2.56714,-2.03814 5.54057,-2.92132 8.76348,-3.343c0,0 1.06375,-0.13918 1.20292,0.92457c0.13917,1.06375 -0.92457,1.20292 -0.92457,1.20292c-3.50956,0.45917 -6.04045,1.9621 -8.47717,3.83598c0.29167,1.21268 0.62459,2.42205 1.0068,3.67623c0.35688,1.17106 1.56346,1.91573 2.08588,3.0229c0.08205,0.1739 0.3788,2.45656 0.49804,3.38287c0.30613,0.31561 0.60905,0.63698 1.01407,0.77462c0.65794,0.22359 1.476,-0.31995 2.08461,0.01541c1.62704,0.89654 2.82974,3.98279 2.94286,5.69802c0.05472,0.82985 0.51634,1.83555 0.00953,2.49494c-0.33291,0.43313 -3.40094,0.76186 -4.11541,0.85534c-0.2133,0.02791 -0.42611,0.05531 -0.63838,0.08252c0.02788,0.21308 0.05575,0.42615 0.08363,0.63923l-0.9528,1.75529c0,0 -0.65377,0.85059 -1.50437,0.19682zM127.83144,209.41034c-0.23611,-0.46848 -0.83397,-0.6647 -1.12337,-1.10227c-0.7493,-1.13292 -0.7848,-2.60404 -1.28375,-3.86736c-0.15787,-0.39971 -0.48469,-0.71074 -0.75174,-1.0529c-0.86452,0.71469 -1.74746,1.45261 -2.68758,2.18425c-0.43636,0.33958 -1.06329,0.44836 -1.4034,0.8843c-0.15299,0.1961 -1.2704,3.80738 -1.23077,3.8243c0.89972,0.3841 1.88643,-0.76596 2.85917,-0.66203c1.97022,0.21051 4.00613,0.41081 5.91167,1.07612c-0.02251,-0.45018 -0.08984,-0.88683 -0.29022,-1.2844zM133.62126,219.34901c0.33602,-0.00441 0.7858,0.45373 0.99058,0.1873c0.20478,-0.26644 -0.35362,-0.58322 -0.43584,-0.90905c-0.24116,-0.95582 -0.70654,-3.56842 -1.79722,-4.06858c-0.53062,-0.24334 -1.19548,0.30166 -1.74844,0.12328c0.21573,1.64888 0.43147,3.29776 0.6472,4.94664c0.77841,-0.1326 1.55653,-0.26924 2.34372,-0.27958z" fill="#000000" stroke="none" stroke-width="0.5"/><path d="M80.57703,237.32502c0.46119,3.52495 -2.21298,6.78127 -5.97293,7.27321c-3.75995,0.49194 -7.18184,-1.96681 -7.64303,-5.49176c-0.46119,-3.52495 2.21298,-6.78127 5.97292,-7.2732c3.75995,-0.49194 7.18185,1.96681 7.64304,5.49175z" fill="none" stroke="#000000" stroke-width="1.5"/><path d="M75.5667,199.03015c0.46119,3.52495 -2.21297,6.78127 -5.97292,7.2732c-3.75995,0.49194 -7.18184,-1.96681 -7.64303,-5.49175c-0.46119,-3.52495 2.21298,-6.78127 5.97292,-7.27321c3.75995,-0.49194 7.18184,1.96681 7.64303,5.49176z" fill="none" stroke="#000000" stroke-width="1.5"/><path d="M190.35567,222.96209c0.46119,3.52495 -2.21298,6.78127 -5.97292,7.2732c-3.75994,0.49194 -7.18185,-1.96681 -7.64303,-5.49175c-0.46119,-3.52495 2.21298,-6.78127 5.97293,-7.27321c3.75994,-0.49194 7.18184,1.96681 7.64303,5.49176z" fill="none" stroke="#000000" stroke-width="1.5"/><path d="M184.60569,185.62955c0.46119,3.52495 -2.21298,6.78127 -5.97293,7.2732c-3.75994,0.49194 -7.18184,-1.96681 -7.64303,-5.49175c-0.46119,-3.52495 2.21298,-6.78127 5.97292,-7.27321c3.75994,-0.49194 7.18185,1.96681 7.64303,5.49176z" fill="none" stroke="#000000" stroke-width="1.5"/></g><g stroke-linecap="butt"><path d="M68.79819,253.14793l-7.90518,-60.4208l132.75558,-17.36913l7.90518,60.42081z" fill="#0cb700" stroke="none" stroke-width="0"/><path d="M155.10698,211.56092c1.59878,12.21982 -7.20176,23.44692 -19.65658,25.07645c-12.45481,1.62953 -23.8475,-6.95559 -25.44628,-19.1754c-1.59879,-12.21982 7.20177,-23.44693 19.65658,-25.07646c12.45481,-1.62953 23.8475,6.95559 25.44628,19.17541z" fill="none" stroke="#000000" stroke-width="2.5"/><path d="M133.99739,228.07133c-0.85059,-0.65377 -0.19682,-1.50437 -0.19682,-1.50437l0.5265,-0.16939c-0.02781,-0.21255 -0.05561,-0.42508 -0.08342,-0.63763c-3.09481,0.43542 -6.03816,1.05129 -8.68495,2.83785l-1.94267,0.28312c0,0 -1.06375,0.13918 -1.20292,-0.92457c-0.13917,-1.06375 0.92457,-1.20292 0.92457,-1.20292l1.46132,-0.16225c2.75855,-1.862 5.88186,-2.49596 9.16674,-2.95532c-0.30114,-2.30169 -0.60228,-4.60336 -0.90342,-6.90506c-1.92989,-0.9401 -4.19187,-1.02056 -6.25853,-1.27937c-1.07295,-0.13437 -3.00563,1.02755 -3.94881,0.22869c-1.53226,-1.2978 -0.0957,-5.60627 0.83713,-6.83303c1.18408,-1.55719 3.62208,-2.4144 5.09582,-3.62791c-0.37187,-1.83303 -0.3539,-4.01629 -0.57674,-5.71949c0,0 -0.13917,-1.06375 0.92458,-1.20292c1.06375,-0.13917 1.20292,0.92457 1.20292,0.92457c0.16635,1.27143 0.35733,2.46997 0.57958,3.63533c2.56714,-2.03814 5.54057,-2.92132 8.76348,-3.343c0,0 1.06375,-0.13918 1.20292,0.92457c0.13917,1.06375 -0.92457,1.20292 -0.92457,1.20292c-3.50956,0.45917 -6.04045,1.96209 -8.47717,3.83597c0.29167,1.21268 0.62459,2.42205 1.0068,3.67623c0.35688,1.17106 1.56346,1.91573 2.08588,3.02291c0.08205,0.1739 0.3788,2.45656 0.49803,3.38287c0.30613,0.31561 0.60906,0.63698 1.01408,0.77462c0.65794,0.22359 1.476,-0.31995 2.08461,0.01541c1.62704,0.89654 2.82974,3.98279 2.94285,5.69802c0.05472,0.82985 0.51634,1.83555 0.00953,2.49494c-0.33291,0.43313 -3.40093,0.76186 -4.1154,0.85534c-0.2133,0.02791 -0.42611,0.05532 -0.63838,0.08252c0.02788,0.21308 0.05575,0.42616 0.08363,0.63923l-0.9528,1.75528c0,0 -0.65377,0.85059 -1.50437,0.19682zM132.64313,213.10862c-0.23611,-0.46848 -0.83397,-0.6647 -1.12337,-1.10226c-0.74929,-1.13292 -0.7848,-2.60404 -1.28375,-3.86737c-0.15786,-0.39971 -0.48469,-0.71073 -0.75174,-1.0529c-0.86452,0.71469 -1.74746,1.45261 -2.68759,2.18424c-0.43636,0.33958 -1.06328,0.44836 -1.4034,0.8843c-0.15299,0.1961 -1.2704,3.80738 -1.23078,3.8243c0.89972,0.3841 1.88643,-0.76597 2.85916,-0.66204c1.97022,0.21051 4.00614,0.41081 5.91168,1.07612c-0.02251,-0.45018 -0.08984,-0.88682 -0.29022,-1.28439zM138.43294,223.0473c0.33602,-0.00441 0.7858,0.45373 0.99058,0.18729c0.20478,-0.26644 -0.35362,-0.58322 -0.43584,-0.90905c-0.24116,-0.95582 -0.70654,-3.56842 -1.79722,-4.06858c-0.53062,-0.24334 -1.19548,0.30166 -1.74844,0.12328c0.21573,1.64888 0.43147,3.29776 0.6472,4.94664c0.77841,-0.1326 1.55653,-0.26924 2.34372,-0.27958z" fill="#000000" stroke="none" stroke-width="0.5"/><path d="M85.38872,241.02331c0.46119,3.52495 -2.21298,6.78127 -5.97293,7.27321c-3.75995,0.49194 -7.18184,-1.96681 -7.64303,-5.49176c-0.46119,-3.52495 2.21298,-6.78127 5.97292,-7.2732c3.75995,-0.49194 7.18185,1.96681 7.64304,5.49175z" fill="none" stroke="#000000" stroke-width="1.5"/><path d="M80.37838,202.72843c0.46119,3.52495 -2.21297,6.78126 -5.97292,7.2732c-3.75995,0.49194 -7.18185,-1.96681 -7.64304,-5.49176c-0.46119,-3.52495 2.21298,-6.78126 5.97293,-7.2732c3.75995,-0.49194 7.18184,1.96681 7.64303,5.49176z" fill="none" stroke="#000000" stroke-width="1.5"/><path d="M195.16736,226.66037c0.46119,3.52495 -2.21298,6.78127 -5.97292,7.2732c-3.75994,0.49194 -7.18185,-1.96681 -7.64303,-5.49175c-0.46119,-3.52495 2.21298,-6.78127 5.97293,-7.27321c3.75994,-0.49194 7.18184,1.96681 7.64303,5.49176z" fill="none" stroke="#000000" stroke-width="1.5"/><path d="M189.41738,189.32783c0.46119,3.52495 -2.21298,6.78127 -5.97293,7.2732c-3.75994,0.49194 -7.18185,-1.96681 -7.64303,-5.49175c-0.46119,-3.52495 2.21298,-6.78127 5.97293,-7.27321c3.75994,-0.49194 7.18185,1.96681 7.64303,5.49176z" fill="none" stroke="#000000" stroke-width="1.5"/></g><g stroke-linecap="butt"><path d="M73.60988,256.84621l-7.90518,-60.4208l132.75558,-17.36913l7.90518,60.42081z" fill="#0cb700" stroke="none" stroke-width="0"/><path d="M159.91867,215.25921c1.59878,12.21982 -7.20176,23.44692 -19.65657,25.07645c-12.45481,1.62953 -23.8475,-6.95559 -25.44628,-19.1754c-1.59879,-12.21982 7.20177,-23.44693 19.65658,-25.07646c12.45481,-1.62953 23.8475,6.95559 25.44628,19.17541z" fill="none" stroke="#000000" stroke-width="2.5"/><path d="M138.80908,231.76962c-0.85059,-0.65377 -0.19682,-1.50437 -0.19682,-1.50437l0.5265,-0.16939c-0.02781,-0.21255 -0.05562,-0.42508 -0.08343,-0.63763c-3.09481,0.43542 -6.03816,1.05129 -8.68494,2.83785l-1.94267,0.28312c0,0 -1.06375,0.13918 -1.20292,-0.92457c-0.13917,-1.06375 0.92457,-1.20293 0.92457,-1.20293l1.46132,-0.16224c2.75855,-1.862 5.88187,-2.49596 9.16674,-2.95532c-0.30114,-2.30169 -0.60228,-4.60336 -0.90342,-6.90506c-1.92989,-0.9401 -4.19188,-1.02056 -6.25853,-1.27937c-1.07296,-0.13437 -3.00563,1.02755 -3.94881,0.22869c-1.53226,-1.2978 -0.0957,-5.60627 0.83713,-6.83303c1.18408,-1.55719 3.62208,-2.41441 5.09582,-3.62792c-0.37187,-1.83303 -0.3539,-4.01628 -0.57674,-5.71949c0,0 -0.13917,-1.06375 0.92457,-1.20293c1.06375,-0.13917 1.20292,0.92458 1.20292,0.92458c0.16635,1.27143 0.35733,2.46997 0.57958,3.63533c2.56714,-2.03814 5.54057,-2.92133 8.76348,-3.343c0,0 1.06375,-0.13917 1.20292,0.92458c0.13917,1.06375 -0.92457,1.20292 -0.92457,1.20292c-3.50956,0.45917 -6.04046,1.96209 -8.47717,3.83597c0.29167,1.21268 0.62459,2.42205 1.0068,3.67623c0.35688,1.17106 1.56346,1.91573 2.08588,3.02291c0.08205,0.1739 0.3788,2.45656 0.49803,3.38287c0.30613,0.31561 0.60906,0.63698 1.01408,0.77462c0.65794,0.22359 1.476,-0.31995 2.08461,0.01541c1.62704,0.89654 2.82974,3.98279 2.94285,5.69802c0.05472,0.82985 0.51634,1.83555 0.00953,2.49495c-0.33291,0.43313 -3.40094,0.76185 -4.11541,0.85533c-0.2133,0.02791 -0.42611,0.05532 -0.63837,0.08253c0.02788,0.21308 0.05576,0.42615 0.08364,0.63923l-0.95281,1.75528c0,0 -0.65377,0.85059 -1.50437,0.19682zM137.45482,216.8069c-0.23611,-0.46848 -0.83397,-0.66469 -1.12337,-1.10226c-0.74929,-1.13292 -0.7848,-2.60405 -1.28375,-3.86737c-0.15786,-0.39971 -0.48469,-0.71073 -0.75174,-1.05289c-0.86452,0.71469 -1.74746,1.4526 -2.68759,2.18424c-0.43635,0.33958 -1.06329,0.44836 -1.4034,0.8843c-0.15299,0.1961 -1.2704,3.80738 -1.23077,3.8243c0.89971,0.3841 1.88643,-0.76597 2.85916,-0.66203c1.97022,0.21051 4.00614,0.41081 5.91168,1.07612c-0.02251,-0.45018 -0.08984,-0.88683 -0.29022,-1.2844zM143.24463,226.74558c0.33602,-0.00441 0.7858,0.45373 0.99058,0.1873c0.20478,-0.26644 -0.35362,-0.58322 -0.43583,-0.90905c-0.24116,-0.95582 -0.70654,-3.56842 -1.79723,-4.06858c-0.53062,-0.24334 -1.19548,0.30166 -1.74844,0.12328c0.21573,1.64888 0.43147,3.29776 0.6472,4.94664c0.77841,-0.1326 1.55654,-0.26924 2.34372,-0.27958z" fill="#000000" stroke="none" stroke-width="0.5"/><path d="M90.2004,244.72159c0.46119,3.52495 -2.21297,6.78127 -5.97292,7.27321c-3.75995,0.49194 -7.18184,-1.96681 -7.64303,-5.49176c-0.46119,-3.52495 2.21298,-6.78127 5.97293,-7.2732c3.75995,-0.49194 7.18184,1.96681 7.64303,5.49175z" fill="none" stroke="#000000" stroke-width="1.5"/><path d="M85.19008,206.42671c0.46119,3.52495 -2.21298,6.78127 -5.97292,7.2732c-3.75995,0.49194 -7.18184,-1.96681 -7.64303,-5.49176c-0.46119,-3.52495 2.21298,-6.78127 5.97293,-7.2732c3.75995,-0.49194 7.18184,1.96681 7.64303,5.49176z" fill="none" stroke="#000000" stroke-width="1.5"/><path d="M199.97905,230.35866c0.46119,3.52495 -2.21298,6.78127 -5.97293,7.2732c-3.75994,0.49194 -7.18184,-1.96681 -7.64303,-5.49175c-0.46119,-3.52495 2.21298,-6.78127 5.97293,-7.27321c3.75994,-0.49194 7.18184,1.96681 7.64303,5.49176z" fill="none" stroke="#000000" stroke-width="1.5"/><path d="M194.22907,193.02612c0.46119,3.52495 -2.21298,6.78127 -5.97293,7.2732c-3.75994,0.49194 -7.18185,-1.96681 -7.64303,-5.49175c-0.46119,-3.52495 2.21298,-6.78127 5.97293,-7.27321c3.75994,-0.49194 7.18185,1.96681 7.64303,5.49176z" fill="none" stroke="#000000" stroke-width="1.5"/></g><text transform="translate(26.60001,306.09999) scale(0.5,0.5)" font-size="40" xml:space="preserve" fill="#000000" fill-rule="nonzero" stroke="none" stroke-width="1" stroke-linecap="butt" stroke-linejoin="miter" stroke-miterlimit="10" stroke-dasharray="" stroke-dashoffset="0" font-family="Sans Serif" font-weight="normal" text-anchor="start" style="mix-blend-mode: normal"><tspan x="0" dy="0">INVEST IN THE STOCK MARKET AND GET RICH!</tspan></text><path d="M-0.39999,361.09999l142,-112" fill="none" stroke="#29ff00" stroke-width="2.5" stroke-linecap="round"/><path d="M396.60001,124.09999l-50,45l-13,-15l-55,45l-32,-40l-46,35" fill="none" stroke="#29ff00" stroke-width="2.5" stroke-linecap="round"/><path d="M403.60001,120.09999l21,-20" fill="none" stroke="#29ff00" stroke-width="2.5" stroke-linecap="round"/><path d="M432.60001,96.09999l46,-40" fill="none" stroke="#29ff00" stroke-width="2.5" stroke-linecap="round"/></g></g></svg>